# xmcd
#
# Track frame offsets: 
#        150
#        17667
#        35029
#        52311
#        72117
#        90474
#        106619
#        126724
#        144626
#        167061
#        191203
#
# Disc length: 2779 seconds
#
# Revision: 0
# Processed by: cddbd v1.5.2PL0 Copyright (c) Steve Scherf et al.
# Submitted via: ExactAudioCopyFreeDBPlugin 1.0
#
DISCID=a10ad90b
DTITLE=捷奏7 - DTS51回忆的痕迹
DYEAR=2003
DGENRE=DTS
TTITLE0=家乡
TTITLE1=最浪漫的事
TTITLE2=好男人
TTITLE3=女人花
TTITLE4=星语心愿
TTITLE5=读你
TTITLE6=爱我的人和我爱的人
TTITLE7=记事本
TTITLE8=祝福
TTITLE9=其实你不懂我的心
TTITLE10=你知道我在等你吗
EXTD=
EXTT0=
EXTT1=
EXTT2=
EXTT3=
EXTT4=
EXTT5=
EXTT6=
EXTT7=
EXTT8=
EXTT9=
EXTT10=
PLAYORDER=
